{
  "accessors": [
    {
      "bufferView": 2,
      "componentType": 5126,
      "count": 65533,
      "max": [
        9.78286075592041,
        1.0530461072921753,
        14.815954208374023
      ],
      "min": [
        -5.1119585037231445,
        -13.132137298583984,
        0.4334096908569336
      ],
      "type": "VEC3"
    },
    {
      "bufferView": 2,
      "byteOffset": 786396,
      "componentType": 5126,
      "count": 65533,
      "max": [
        0.999989926815033,
        0.999954104423523,
        0.9999974370002747
      ],
      "min": [
        -0.9999321699142456,
        -0.9999420046806335,
        -0.9999551773071289
      ],
      "type": "VEC3"
    },
    {
      "bufferView": 1,
      "componentType": 5126,
      "count": 65533,
      "max": [
        0.9996320009231567,
        0.9998779892921448
      ],
      "min": [
        0.00012199999764561653,
        0.03553200140595436
      ],
      "type": "VEC2"
    },
    {
      "bufferView": 0,
      "componentType": 5125,
      "count": 119745,
      "type": "SCALAR"
    },
    {
      "bufferView": 2,
      "byteOffset": 1572792,
      "componentType": 5126,
      "count": 65532,
      "max": [
        9.801497459411621,
        6.2335124015808105,
        14.55853271484375
      ],
      "min": [
        -6.662708759307861,
        -12.978020668029785,
        0.3619236946105957
      ],
      "type": "VEC3"
    },
    {
      "bufferView": 2,
      "byteOffset": 2359176,
      "componentType": 5126,
      "count": 65532,
      "max": [
        0.999949038028717,
        0.9999540448188782,
        1.0
      ],
      "min": [
        -0.9999945163726807,
        -0.9999887347221375,
        -0.9999508857727051
      ],
      "type": "VEC3"
    },
    {
      "bufferView": 1,
      "byteOffset": 524264,
      "componentType": 5126,
      "count": 65532,
      "max": [
        0.9996269941329956,
        0.8878170251846313
      ],
      "min": [
        0.00012199999764561653,
        0.033385999500751495
      ],
      "type": "VEC2"
    },
    {
      "bufferView": 0,
      "byteOffset": 478980,
      "componentType": 5125,
      "count": 134946,
      "type": "SCALAR"
    },
    {
      "bufferView": 2,
      "byteOffset": 3145560,
      "componentType": 5126,
      "count": 65534,
      "max": [
        11.836529731750488,
        11.155960083007813,
        4.125067710876465
      ],
      "min": [
        -6.669581890106201,
        -13.086589813232422,
        -0.1443939208984375
      ],
      "type": "VEC3"
    },
    {
      "bufferView": 2,
      "byteOffset": 3931968,
      "componentType": 5126,
      "count": 65534,
      "max": [
        0.9999992251396179,
        0.9999865889549255,
        1.0
      ],
      "min": [
        -0.9999995827674866,
        -0.9999892711639404,
        -0.9995505809783936
      ],
      "type": "VEC3"
    },
    {
      "bufferView": 1,
      "byteOffset": 1048520,
      "componentType": 5126,
      "count": 65534,
      "max": [
        0.9995859861373901,
        0.624144971370697
      ],
      "min": [
        0.00012199999764561653,
        0.00036899998667649925
      ],
      "type": "VEC2"
    },
    {
      "bufferView": 0,
      "byteOffset": 1018764,
      "componentType": 5125,
      "count": 235881,
      "type": "SCALAR"
    },
    {
      "bufferView": 2,
      "byteOffset": 4718376,
      "componentType": 5126,
      "count": 65532,
      "max": [
        8.876724243164063,
        1.1574616432189941,
        7.662073135375977
      ],
      "min": [
        -6.6616339683532715,
        -13.086589813232422,
        0.35551977157592773
      ],
      "type": "VEC3"
    },
    {
      "bufferView": 2,
      "byteOffset": 5504760,
      "componentType": 5126,
      "count": 65532,
      "max": [
        0.9999749064445496,
        0.9999827742576599,
        0.999999463558197
      ],
      "min": [
        -0.9999969601631165,
        -0.9999682307243347,
        -0.9999487996101379
      ],
      "type": "VEC3"
    },
    {
      "bufferView": 1,
      "byteOffset": 1572792,
      "componentType": 5126,
      "count": 65532,
      "max": [
        0.9996010065078735,
        0.5596920251846313
      ],
      "min": [
        0.00012199999764561653,
        0.0026740001048892736
      ],
      "type": "VEC2"
    },
    {
      "bufferView": 0,
      "byteOffset": 1962288,
      "componentType": 5125,
      "count": 142539,
      "type": "SCALAR"
    },
    {
      "bufferView": 2,
      "byteOffset": 6291144,
      "componentType": 5126,
      "count": 65532,
      "max": [
        10.28081226348877,
        10.253552436828613,
        7.564330101013184
      ],
      "min": [
        -6.648486614227295,
        -12.967122077941895,
        0.6316218376159668
      ],
      "type": "VEC3"
    },
    {
      "bufferView": 2,
      "byteOffset": 7077528,
      "componentType": 5126,
      "count": 65532,
      "max": [
        0.9999894499778748,
        0.9999991655349731,
        0.9999984502792358
      ],
      "min": [
        -0.9999979734420776,
        -0.9999169111251831,
        -0.999954104423523
      ],
      "type": "VEC3"
    },
    {
      "bufferView": 1,
      "byteOffset": 2097048,
      "componentType": 5126,
      "count": 65532,
      "max": [
        0.9996070265769958,
        0.2557370066642761
      ],
      "min": [
        0.00012199999764561653,
        0.0010000000474974513
      ],
      "type": "VEC2"
    },
    {
      "bufferView": 0,
      "byteOffset": 2532444,
      "componentType": 5125,
      "count": 123975,
      "type": "SCALAR"
    },
    {
      "bufferView": 2,
      "byteOffset": 7863912,
      "componentType": 5126,
      "count": 65532,
      "max": [
        11.887934684753418,
        11.174192428588867,
        3.0955424308776855
      ],
      "min": [
        4.8842997550964355,
        0.6848390102386475,
        0.21280574798583984
      ],
      "type": "VEC3"
    },
    {
      "bufferView": 2,
      "byteOffset": 8650296,
      "componentType": 5126,
      "count": 65532,
      "max": [
        0.9999998211860657,
        0.9999951124191284,
        0.9999997019767761
      ],
      "min": [
        -0.999996542930603,
        -0.9999703764915466,
        -0.9996767640113831
      ],
      "type": "VEC3"
    },
    {
      "bufferView": 1,
      "byteOffset": 2621304,
      "componentType": 5126,
      "count": 65532,
      "max": [
        0.9996340274810791,
        0.07409700006246567
      ],
      "min": [
        0.00012199999764561653,
        0.0002789999998640269
      ],
      "type": "VEC2"
    },
    {
      "bufferView": 0,
      "byteOffset": 3028344,
      "componentType": 5125,
      "count": 165912,
      "type": "SCALAR"
    },
    {
      "bufferView": 2,
      "byteOffset": 9436680,
      "componentType": 5126,
      "count": 65532,
      "max": [
        9.176652908325195,
        9.447855949401855,
        6.151454448699951
      ],
      "min": [
        -6.642345905303955,
        -9.030081748962402,
        0.47757625579833984
      ],
      "type": "VEC3"
    },
    {
      "bufferView": 2,
      "byteOffset": 10223064,
      "componentType": 5126,
      "count": 65532,
      "max": [
        0.9998177289962769,
        0.9999827742576599,
        0.999999463558197
      ],
      "min": [
        -0.9999976754188538,
        -0.9999810457229614,
        -0.9997419118881226
      ],
      "type": "VEC3"
    },
    {
      "bufferView": 1,
      "byteOffset": 3145560,
      "componentType": 5126,
      "count": 65532,
      "max": [
        0.9996269941329956,
        0.34875500202178955
      ],
      "min": [
        0.00012199999764561653,
        0.0003699999942909926
      ],
      "type": "VEC2"
    },
    {
      "bufferView": 0,
      "byteOffset": 3691992,
      "componentType": 5125,
      "count": 129123,
      "type": "SCALAR"
    },
    {
      "bufferView": 2,
      "byteOffset": 11009448,
      "componentType": 5126,
      "count": 65534,
      "max": [
        5.142516613006592,
        8.716743469238281,
        13.777168273925781
      ],
      "min": [
        -4.9361677169799805,
        -8.59052848815918,
        0.4775118827819824
      ],
      "type": "VEC3"
    },
    {
      "bufferView": 2,
      "byteOffset": 11795856,
      "componentType": 5126,
      "count": 65534,
      "max": [
        0.9999626278877258,
        0.999923050403595,
        0.9999963045120239
      ],
      "min": [
        -0.9999995827674866,
        -0.9999984502792358,
        -0.9996371269226074
      ],
      "type": "VEC3"
    },
    {
      "bufferView": 1,
      "byteOffset": 3669816,
      "componentType": 5126,
      "count": 65534,
      "max": [
        0.9996330142021179,
        0.4630129933357239
      ],
      "min": [
        0.00012199999764561653,
        0.0003929999948013574
      ],
      "type": "VEC2"
    },
    {
      "bufferView": 0,
      "byteOffset": 4208484,
      "componentType": 5125,
      "count": 134826,
      "type": "SCALAR"
    },
    {
      "bufferView": 2,
      "byteOffset": 12582264,
      "componentType": 5126,
      "count": 65533,
      "max": [
        7.1577911376953125,
        11.151361465454102,
        4.408788204193115
      ],
      "min": [
        -2.419602632522583,
        -12.916614532470703,
        0.4294462203979492
      ],
      "type": "VEC3"
    },
    {
      "bufferView": 2,
      "byteOffset": 13368660,
      "componentType": 5126,
      "count": 65533,
      "max": [
        0.9999769926071167,
        0.9999990463256836,
        0.9999977946281433
      ],
      "min": [
        -0.9999634623527527,
        -0.9998102784156799,
        -0.999613881111145
      ],
      "type": "VEC3"
    },
    {
      "bufferView": 1,
      "byteOffset": 4194088,
      "componentType": 5126,
      "count": 65533,
      "max": [
        0.9996330142021179,
        0.5552979707717896
      ],
      "min": [
        0.00012199999764561653,
        0.00039599998854100704
      ],
      "type": "VEC2"
    },
    {
      "bufferView": 0,
      "byteOffset": 4747788,
      "componentType": 5125,
      "count": 124143,
      "type": "SCALAR"
    },
    {
      "bufferView": 2,
      "byteOffset": 14155056,
      "componentType": 5126,
      "count": 2028,
      "max": [
        8.817610740661621,
        -7.898545265197754,
        3.2064623832702637
      ],
      "min": [
        1.5545827150344849,
        -13.086589813232422,
        0.3574666976928711
      ],
      "type": "VEC3"
    },
    {
      "bufferView": 2,
      "byteOffset": 14179392,
      "componentType": 5126,
      "count": 2028,
      "max": [
        0.9962307214736938,
        0.9986337423324585,
        0.9998986721038818
      ],
      "min": [
        -0.9992928504943848,
        -0.9996404647827148,
        -0.9710760116577148
      ],
      "type": "VEC3"
    },
    {
      "bufferView": 1,
      "byteOffset": 4718352,
      "componentType": 5126,
      "count": 2028,
      "max": [
        0.9991340041160583,
        0.5560299754142761
      ],
      "min": [
        0.00012199999764561653,
        0.021020999178290367
      ],
      "type": "VEC2"
    },
    {
      "bufferView": 0,
      "byteOffset": 5244360,
      "componentType": 5125,
      "count": 3120,
      "type": "SCALAR"
    }
  ],
  "asset": {
    "extras": {
      "author": "STUDIO DUCKBILL (https://sketchfab.com/DuckbillStudio)",
      "license": "CC-BY-NC-4.0 (http://creativecommons.org/licenses/by-nc/4.0/)",
      "source": "https://sketchfab.com/3d-models/spring-rose-garden-e938074ab933476e9b9a2be772e03335",
      "title": "Spring Rose Garden"
    },
    "generator": "Sketchfab-12.67.0",
    "version": "2.0"
  },
  "bufferViews": [
    {
      "buffer": 0,
      "byteLength": 5256840,
      "name": "floatBufferViews",
      "target": 34963
    },
    {
      "buffer": 0,
      "byteLength": 4734576,
      "byteOffset": 5256840,
      "byteStride": 8,
      "name": "floatBufferViews",
      "target": 34962
    },
    {
      "buffer": 0,
      "byteLength": 14203728,
      "byteOffset": 9991416,
      "byteStride": 12,
      "name": "floatBufferViews",
      "target": 34962
    }
  ],
  "buffers": [
    {
      "byteLength": 24195144,
      "uri": "scene.bin"
    }
  ],
  "extensionsUsed": [
    "KHR_materials_unlit"
  ],
  "images": [
    {
      "uri": "textures/RoseGarden_u0_v0_baseColor.jpeg"
    }
  ],
  "materials": [
    {
      "doubleSided": true,
      "extensions": {
        "KHR_materials_unlit": {}
      },
      "name": "RoseGarden_u0_v0",
      "pbrMetallicRoughness": {
        "baseColorTexture": {
          "index": 0
        },
        "metallicFactor": 0.0
      }
    }
  ],
  "meshes": [
    {
      "name": "Object_0",
      "primitives": [
        {
          "attributes": {
            "NORMAL": 1,
            "POSITION": 0,
            "TEXCOORD_0": 2
          },
          "indices": 3,
          "material": 0,
          "mode": 4
        }
      ]
    },
    {
      "name": "Object_1",
      "primitives": [
        {
          "attributes": {
            "NORMAL": 5,
            "POSITION": 4,
            "TEXCOORD_0": 6
          },
          "indices": 7,
          "material": 0,
          "mode": 4
        }
      ]
    },
    {
      "name": "Object_2",
      "primitives": [
        {
          "attributes": {
            "NORMAL": 9,
            "POSITION": 8,
            "TEXCOORD_0": 10
          },
          "indices": 11,
          "material": 0,
          "mode": 4
        }
      ]
    },
    {
      "name": "Object_3",
      "primitives": [
        {
          "attributes": {
            "NORMAL": 13,
            "POSITION": 12,
            "TEXCOORD_0": 14
          },
          "indices": 15,
          "material": 0,
          "mode": 4
        }
      ]
    },
    {
      "name": "Object_4",
      "primitives": [
        {
          "attributes": {
            "NORMAL": 17,
            "POSITION": 16,
            "TEXCOORD_0": 18
          },
          "indices": 19,
          "material": 0,
          "mode": 4
        }
      ]
    },
    {
      "name": "Object_5",
      "primitives": [
        {
          "attributes": {
            "NORMAL": 21,
            "POSITION": 20,
            "TEXCOORD_0": 22
          },
          "indices": 23,
          "material": 0,
          "mode": 4
        }
      ]
    },
    {
      "name": "Object_6",
      "primitives": [
        {
          "attributes": {
            "NORMAL": 25,
            "POSITION": 24,
            "TEXCOORD_0": 26
          },
          "indices": 27,
          "material": 0,
          "mode": 4
        }
      ]
    },
    {
      "name": "Object_7",
      "primitives": [
        {
          "attributes": {
            "NORMAL": 29,
            "POSITION": 28,
            "TEXCOORD_0": 30
          },
          "indices": 31,
          "material": 0,
          "mode": 4
        }
      ]
    },
    {
      "name": "Object_8",
      "primitives": [
        {
          "attributes": {
            "NORMAL": 33,
            "POSITION": 32,
            "TEXCOORD_0": 34
          },
          "indices": 35,
          "material": 0,
          "mode": 4
        }
      ]
    },
    {
      "name": "Object_9",
      "primitives": [
        {
          "attributes": {
            "NORMAL": 37,
            "POSITION": 36,
            "TEXCOORD_0": 38
          },
          "indices": 39,
          "material": 0,
          "mode": 4
        }
      ]
    }
  ],
  "nodes": [
    {
      "children": [
        1
      ],
      "matrix": [
        -0.1579303741455078,
        -9.933838690269263e-33,
        4.473803222385527e-17,
        0.0,
        4.473803222385527e-17,
        -3.506758753280166e-17,
        0.1579303741455078,
        0.0,
        0.0,
        0.1579303741455078,
        3.506758753280166e-17,
        0.0,
        5.218344688415527,
        -4.347341544641125e-16,
        1.9578685760498047,
        1.0
      ],
      "name": "Sketchfab_model"
    },
    {
      "children": [
        2,
        3,
        4,
        5,
        6,
        7,
        8,
        9,
        10,
        11
      ],
      "name": "RoseGarden.obj.cleaner.materialmerger.gles"
    },
    {
      "mesh": 0,
      "name": "Object_2"
    },
    {
      "mesh": 1,
      "name": "Object_3"
    },
    {
      "mesh": 2,
      "name": "Object_4"
    },
    {
      "mesh": 3,
      "name": "Object_5"
    },
    {
      "mesh": 4,
      "name": "Object_6"
    },
    {
      "mesh": 5,
      "name": "Object_7"
    },
    {
      "mesh": 6,
      "name": "Object_8"
    },
    {
      "mesh": 7,
      "name": "Object_9"
    },
    {
      "mesh": 8,
      "name": "Object_10"
    },
    {
      "mesh": 9,
      "name": "Object_11"
    }
  ],
  "samplers": [
    {
      "magFilter": 9729,
      "minFilter": 9987,
      "wrapS": 10497,
      "wrapT": 10497
    }
  ],
  "scene": 0,
  "scenes": [
    {
      "name": "Sketchfab_Scene",
      "nodes": [
        0
      ]
    }
  ],
  "textures": [
    {
      "sampler": 0,
      "source": 0
    }
  ]
}
